<?xml version="1.0" standalone="no"?>
<!DOCTYPE svg PUBLIC "-//W3C//DTD SVG 20010904//EN"
 "http://www.w3.org/TR/2001/REC-SVG-20010904/DTD/svg10.dtd">
<svg version="1.0" xmlns="http://www.w3.org/2000/svg"
 width="485.000000pt" height="489.000000pt" viewBox="0 0 485.000000 489.000000"
 preserveAspectRatio="xMidYMid meet">

<g transform="translate(0.000000,489.000000) scale(0.100000,-0.100000)"
fill="#000000" stroke="none">
<path d="M2260 4740 c-623 -49 -1235 -365 -1611 -833 -356 -442 -531 -931
-531 -1482 0 -551 175 -1040 531 -1482 304 -378 787 -673 1281 -783 181 -40
300 -52 505 -52 551 0 1040 175 1482 531 378 304 673 787 783 1281 40 181 52
300 52 505 0 558 -178 1049 -540 1491 -313 382 -777 664 -1272 774 -209 46
-476 66 -680 50z m470 -286 c814 -120 1473 -711 1681 -1508 46 -178 61 -301
61 -506 1 -335 -64 -625 -204 -904 -270 -539 -709 -902 -1296 -1071 -180 -51
-317 -69 -537 -69 -267 0 -462 33 -700 119 -113 41 -333 152 -433 219 -478
319 -804 836 -888 1406 -22 152 -22 446 0 589 141 904 835 1596 1731 1725 61
9 137 18 170 20 101 6 304 -4 415 -20z"/>
<path d="M2275 4404 c-16 -2 -70 -9 -120 -15 -239 -29 -523 -129 -744 -264
-447 -270 -767 -704 -895 -1210 -45 -180 -58 -287 -58 -485 0 -452 133 -843
411 -1214 80 -107 264 -288 375 -370 713 -527 1668 -528 2379 -2 41 31 128
106 192 167 311 300 507 681 580 1134 23 135 23 404 0 555 -64 440 -252 816
-564 1130 -295 296 -676 491 -1086 556 -88 14 -410 27 -470 18z m-651 -745
c67 -62 129 -179 148 -281 7 -38 17 -68 23 -68 11 0 43 22 150 100 28 20 144
103 258 185 241 170 216 165 323 60 67 -66 115 -150 139 -241 8 -32 17 -60 20
-63 15 -15 233 134 440 300 l109 88 21 -30 c117 -175 211 -281 311 -351 l74
-52 0 -952 0 -952 -62 -55 c-135 -117 -272 -227 -284 -227 -21 0 -100 94 -128
153 -15 32 -37 97 -48 145 -20 84 -21 117 -25 860 l-4 773 -72 60 c-92 76
-195 128 -270 136 l-57 6 0 -761 0 -760 110 -82 c61 -45 110 -87 110 -92 0
-10 -424 -430 -440 -436 -4 -1 -33 32 -65 75 -74 98 -219 240 -309 300 -37 26
-70 53 -73 61 -3 8 17 34 51 63 l56 51 0 752 0 752 -27 27 c-16 14 -45 33 -65
41 -45 19 -198 32 -222 19 -15 -8 -16 -73 -16 -801 l0 -793 72 -69 73 -69
-204 -198 c-112 -109 -209 -201 -216 -205 -8 -5 -24 9 -44 37 -47 66 -178 201
-217 226 l-35 21 6 142 c8 180 8 1545 0 1777 l-6 176 63 51 c35 27 99 79 143
115 93 75 91 75 189 -14z"/>
</g>
</svg>
