<?xml version="1.0" standalone="no"?>
<!DOCTYPE svg PUBLIC "-//W3C//DTD SVG 20010904//EN"
 "http://www.w3.org/TR/2001/REC-SVG-20010904/DTD/svg10.dtd">
<svg version="1.0" xmlns="http://www.w3.org/2000/svg"
 width="750.000000pt" height="743.000000pt" viewBox="0 0 750.000000 743.000000"
 preserveAspectRatio="xMidYMid meet">

<g transform="translate(0.000000,743.000000) scale(0.100000,-0.100000)"
fill="#000000" stroke="none">
<path d="M3480 6884 c-1036 -96 -1914 -639 -2471 -1529 -36 -58 -86 -143 -110
-190 -41 -79 -66 -105 -66 -70 0 8 5 15 11 15 6 0 5 4 -2 9 -8 4 -14 12 -14
16 0 4 6 12 14 16 7 5 8 9 2 9 -14 0 -14 30 0 30 6 0 5 4 -2 9 -17 11 -17 21
0 32 7 5 8 9 2 9 -14 0 -14 30 0 30 6 0 5 4 -2 9 -8 4 -14 12 -14 16 0 4 6 12
14 16 7 5 8 9 2 9 -14 0 -14 30 0 30 6 0 5 4 -2 9 -17 11 -17 21 0 32 7 5 8 9
2 9 -14 0 -14 30 0 30 6 0 5 4 -2 9 -8 4 -14 12 -14 16 0 4 6 12 14 16 7 5 8
9 2 9 -14 0 -14 30 0 30 6 0 5 4 -2 9 -8 4 -14 12 -14 16 0 4 6 12 14 16 7 5
8 9 2 9 -14 0 -14 30 0 30 6 0 5 4 -2 9 -17 11 -17 21 0 32 7 5 8 9 2 9 -14 0
-14 30 0 30 6 0 5 4 -2 9 -8 4 -14 12 -14 16 0 4 6 12 14 16 7 5 8 9 2 9 -14
0 -14 30 0 30 6 0 5 4 -2 9 -17 11 -17 21 0 32 10 7 10 9 0 9 -7 0 -10 5 -7
10 3 6 2 10 -2 10 -10 0 -151 -212 -210 -315 -259 -450 -426 -973 -474 -1487
-17 -189 -7 -646 19 -813 88 -566 271 -1047 569 -1497 46 -70 89 -131 95 -134
7 -4 8 -2 4 4 -4 7 -1 12 6 12 10 0 10 2 0 9 -8 4 -14 12 -14 16 0 4 6 12 14
16 7 5 8 9 2 9 -14 0 -14 30 0 30 6 0 5 4 -2 9 -8 4 -14 12 -14 16 0 4 6 12
14 16 7 5 8 9 2 9 -14 0 -14 30 0 30 6 0 5 4 -2 9 -8 4 -14 12 -14 16 0 4 6
12 14 16 7 5 8 9 2 9 -14 0 -14 30 0 30 6 0 5 4 -2 9 -8 4 -14 12 -14 16 0 4
6 12 14 16 7 5 8 9 2 9 -14 0 -14 30 0 30 6 0 5 4 -2 9 -17 11 -17 21 0 32 7
5 8 9 2 9 -14 0 -14 30 0 30 6 0 5 4 -2 9 -8 4 -14 12 -14 16 0 4 6 12 14 16
7 5 8 9 2 9 -14 0 -14 30 0 30 6 0 5 4 -2 9 -17 11 -17 21 0 32 7 5 8 9 2 9
-14 0 -14 30 0 30 6 0 5 4 -2 9 -17 11 -17 21 0 32 7 5 8 9 2 9 -14 0 -14 30
0 30 6 0 5 4 -2 9 -17 11 -17 21 0 32 8 5 8 9 2 9 -14 0 -13 42 1 52 6 5 6 8
-1 8 -6 0 -11 7 -11 15 0 24 5 18 38 -48 56 -111 199 -341 294 -471 451 -621
1136 -1068 1890 -1235 351 -77 792 -91 1161 -36 513 77 1012 288 1444 611 164
123 427 377 551 534 151 189 329 462 395 603 10 20 20 37 24 37 3 0 6 -176 6
-390 -1 -215 1 -390 4 -390 19 1 226 332 304 487 198 396 310 768 373 1241 26
197 23 627 -6 837 -84 615 -278 1123 -620 1624 -24 35 -46 59 -50 53 -3 -5 -6
-177 -5 -381 0 -204 -1 -371 -2 -371 -1 0 -32 55 -69 123 -82 151 -229 373
-337 509 -102 130 -371 398 -508 508 -299 239 -692 444 -1060 555 -319 95
-526 126 -875 130 -143 1 -280 1 -305 -1z m593 -120 c343 -37 660 -128 974
-279 335 -161 590 -341 843 -595 164 -164 328 -368 314 -391 -3 -5 1 -9 8 -9
9 0 9 -3 -2 -10 -13 -9 -13 -10 0 -10 13 0 13 -1 0 -10 -13 -9 -13 -10 0 -10
13 0 13 -1 0 -10 -13 -9 -13 -10 0 -10 13 0 13 -1 0 -10 -13 -9 -13 -10 0 -10
13 0 13 -1 0 -10 -13 -9 -13 -10 0 -10 13 0 13 -1 0 -10 -13 -9 -13 -10 0 -10
13 0 13 -1 0 -10 -13 -9 -13 -10 0 -10 13 0 13 -1 0 -10 -13 -9 -13 -10 0 -10
13 0 13 -1 0 -10 -13 -9 -13 -10 0 -10 13 0 13 -1 0 -10 -13 -9 -13 -10 0 -10
13 0 13 -1 0 -10 -13 -9 -13 -10 0 -10 13 0 13 -1 0 -10 -13 -9 -13 -10 0 -10
13 0 13 -1 0 -10 -13 -9 -13 -10 0 -10 13 0 13 -1 0 -10 -13 -9 -13 -10 0 -10
13 0 13 -1 0 -10 -13 -9 -13 -10 0 -10 13 0 13 -1 0 -10 -13 -9 -13 -10 0 -10
13 0 13 -1 0 -10 -13 -9 -13 -10 0 -10 13 0 13 -1 0 -10 -13 -9 -13 -10 0 -10
13 0 13 -1 0 -10 -13 -9 -13 -10 0 -10 13 0 13 -1 0 -10 -13 -9 -13 -10 0 -10
13 0 13 -1 0 -10 -13 -9 -13 -10 0 -10 13 0 13 -1 0 -10 -13 -9 -13 -10 0 -10
13 0 13 -1 0 -10 -13 -9 -13 -10 0 -10 13 0 13 -1 0 -10 -13 -9 -13 -10 0 -10
13 0 13 -1 0 -10 -13 -9 -13 -10 0 -10 13 0 13 -1 0 -10 -13 -9 -13 -10 0 -10
13 0 13 -1 0 -10 -13 -9 -13 -10 0 -10 13 0 13 -1 0 -10 -13 -9 -13 -10 0 -10
13 0 13 -1 0 -10 -13 -9 -13 -10 0 -10 13 0 13 -1 0 -10 -13 -9 -13 -10 0 -10
13 0 13 -1 0 -10 -13 -9 -13 -10 0 -10 13 0 13 -1 0 -10 -13 -9 -13 -10 0 -10
13 0 13 -1 0 -10 -13 -9 -13 -10 0 -10 13 0 13 -1 0 -10 -13 -9 -13 -10 0 -10
13 0 13 -1 0 -10 -13 -9 -13 -10 0 -10 13 0 13 -1 0 -10 -13 -9 -13 -10 0 -10
13 0 13 -1 0 -10 -13 -9 -13 -10 0 -10 13 0 13 -1 0 -10 -13 -9 -13 -10 0 -10
13 0 13 -1 0 -10 -13 -9 -13 -10 0 -10 13 0 13 -1 0 -10 -13 -9 -13 -10 0 -10
13 0 13 -1 0 -10 -13 -9 -13 -10 0 -10 13 0 13 -1 0 -10 -13 -9 -13 -10 0 -10
13 0 13 -1 0 -10 -13 -9 -13 -10 0 -10 13 0 13 -1 0 -10 -13 -9 -13 -10 0 -10
13 0 13 -1 0 -10 -13 -9 -13 -10 0 -10 13 0 13 -1 0 -10 -13 -9 -13 -10 0 -10
13 0 13 -1 0 -10 -13 -9 -13 -10 0 -10 13 0 13 -1 0 -10 -13 -9 -13 -10 0 -10
13 0 13 -1 0 -10 -13 -9 -13 -10 0 -10 13 0 13 -1 0 -10 -13 -9 -13 -10 0 -10
13 0 13 -1 0 -10 -13 -9 -13 -10 0 -10 13 0 13 -1 0 -10 -13 -9 -13 -10 0 -10
13 0 13 -1 0 -10 -13 -9 -13 -10 0 -10 13 0 13 -1 0 -10 -13 -9 -13 -10 0 -10
13 0 13 -1 0 -10 -13 -9 -13 -10 0 -10 13 0 13 -1 0 -10 -13 -9 -13 -10 0 -10
13 0 13 -1 0 -10 -13 -9 -13 -10 0 -10 13 0 13 -1 0 -10 -13 -9 -13 -10 0 -10
13 0 13 -1 0 -10 -13 -9 -13 -10 0 -10 13 0 13 -1 0 -10 -13 -9 -13 -10 0 -10
13 0 13 -1 0 -10 -13 -9 -13 -10 0 -10 13 0 13 -1 0 -10 -13 -9 -13 -10 0 -10
13 0 13 -1 0 -10 -13 -9 -13 -10 0 -10 13 0 13 -1 0 -10 -13 -9 -13 -10 0 -10
13 0 13 -1 0 -10 -13 -9 -13 -10 0 -10 13 0 13 -1 0 -10 -13 -9 -13 -10 0 -10
13 0 13 -1 0 -10 -13 -9 -13 -10 0 -10 13 0 13 -1 0 -10 -13 -9 -13 -10 0 -10
13 0 13 -1 0 -10 -13 -9 -13 -10 0 -10 13 0 13 -1 0 -10 -13 -9 -13 -10 0 -10
13 0 13 -1 0 -10 -13 -9 -13 -10 0 -10 13 0 13 -1 0 -10 -13 -9 -13 -10 0 -10
13 0 13 -1 0 -10 -13 -9 -13 -10 0 -10 13 0 13 -1 0 -10 -13 -9 -13 -10 0 -10
13 0 13 -1 0 -10 -13 -9 -13 -10 0 -10 13 0 13 -1 0 -10 -13 -9 -13 -10 0 -10
13 0 13 -1 0 -10 -13 -9 -13 -10 0 -10 13 0 13 -1 0 -10 -13 -9 -13 -10 0 -10
13 0 13 -1 0 -10 -13 -9 -13 -10 0 -10 13 0 13 -1 0 -10 -13 -9 -13 -10 0 -10
13 0 13 -1 0 -10 -13 -9 -13 -10 0 -10 13 0 13 -1 0 -10 -13 -9 -13 -10 0 -10
13 0 13 -1 0 -10 -13 -9 -13 -10 0 -10 13 0 13 -1 0 -10 -13 -9 -13 -10 0 -10
13 0 13 -1 0 -10 -13 -9 -13 -10 0 -10 13 0 13 -1 0 -10 -13 -9 -13 -10 0 -10
13 0 13 -1 0 -10 -13 -9 -13 -10 0 -10 13 0 13 -1 0 -10 -13 -9 -13 -10 0 -10
13 0 13 -1 0 -10 -13 -9 -13 -10 0 -10 13 0 13 -1 0 -10 -13 -9 -13 -10 0 -10
13 0 13 -1 0 -10 -13 -9 -13 -10 0 -10 13 0 13 -1 0 -10 -13 -9 -13 -10 0 -10
13 0 13 -1 0 -10 -13 -9 -13 -10 0 -10 13 0 13 -1 0 -10 -13 -9 -13 -10 0 -10
13 0 13 -1 0 -10 -13 -9 -13 -10 0 -10 13 0 13 -1 0 -10 -13 -9 -13 -10 0 -10
13 0 13 -1 0 -10 -13 -9 -13 -10 0 -10 13 0 13 -1 0 -10 -13 -9 -13 -10 0 -10
13 0 13 -1 0 -10 -13 -9 -13 -10 0 -10 13 0 13 -1 0 -10 -13 -9 -13 -10 0 -10
13 0 13 -1 0 -10 -13 -9 -13 -10 0 -10 13 0 13 -1 0 -10 -13 -9 -13 -10 0 -10
13 0 13 -1 0 -10 -13 -9 -13 -10 0 -10 13 0 13 -1 0 -10 -13 -9 -13 -10 0 -10
13 0 13 -1 0 -10 -13 -9 -13 -10 0 -10 13 0 13 -1 0 -10 -13 -9 -13 -10 0 -10
13 0 13 -1 0 -10 -13 -9 -13 -10 0 -10 13 0 13 -1 0 -10 -13 -9 -13 -10 0 -10
13 0 13 -1 0 -10 -13 -9 -13 -10 0 -10 13 0 13 -1 0 -10 -13 -9 -13 -10 0 -10
13 0 13 -1 0 -10 -13 -9 -13 -10 0 -10 13 0 13 -1 0 -10 -13 -9 -13 -10 0 -10
13 0 13 -1 0 -10 -13 -9 -13 -10 0 -10 13 0 13 -1 0 -10 -13 -9 -13 -10 0 -10
13 0 13 -1 0 -10 -13 -9 -13 -10 0 -10 13 0 13 -1 0 -10 -13 -9 -13 -10 0 -10
13 0 13 -1 0 -10 -13 -9 -13 -10 0 -10 13 0 13 -1 0 -10 -13 -9 -13 -10 0 -10
13 0 13 -1 0 -10 -13 -9 -13 -10 0 -10 13 0 13 -1 0 -10 -13 -9 -13 -10 0 -10
13 0 13 -1 0 -10 -13 -9 -13 -10 0 -10 13 0 13 -1 0 -10 -13 -9 -13 -10 0 -10
13 0 13 -1 0 -10 -13 -9 -13 -10 0 -10 13 0 13 -1 0 -10 -13 -9 -13 -10 0 -10
13 0 13 -1 0 -10 -13 -9 -13 -10 0 -10 13 0 13 -1 0 -10 -13 -9 -13 -10 0 -10
13 0 13 -1 0 -10 -13 -9 -13 -10 0 -10 13 0 13 -1 0 -10 -13 -9 -13 -10 0 -10
13 0 13 -1 0 -10 -13 -9 -13 -10 0 -10 13 0 13 -1 0 -10 -13 -9 -13 -10 0 -10
13 0 13 -1 0 -10 -13 -9 -13 -10 0 -10 13 0 13 -1 0 -10 -13 -9 -13 -10 0 -10
13 0 13 -1 0 -10 -13 -9 -13 -10 0 -10 13 0 13 -1 0 -10 -13 -9 -13 -10 0 -10
13 0 13 -1 0 -10 -13 -9 -13 -10 0 -10 13 0 13 -1 0 -10 -13 -9 -13 -10 0 -10
13 0 13 -1 0 -10 -13 -9 -13 -10 0 -10 13 0 13 -1 0 -10 -13 -9 -13 -10 0 -10
13 0 13 -1 0 -10 -13 -9 -13 -10 0 -10 13 0 13 -1 0 -10 -13 -9 -13 -10 0 -10
13 0 13 -1 0 -10 -13 -9 -13 -10 0 -10 13 0 13 -1 0 -10 -13 -9 -13 -10 0 -10
13 0 13 -1 0 -10 -13 -9 -13 -10 0 -10 13 0 13 -1 0 -10 -13 -9 -13 -10 0 -10
13 0 13 -1 0 -10 -13 -9 -13 -10 0 -10 13 0 13 -1 0 -10 -13 -9 -13 -10 0 -10
13 0 13 -1 0 -10 -13 -9 -13 -10 0 -10 13 0 13 -1 0 -10 -13 -9 -13 -10 0 -10
13 0 13 -1 0 -10 -13 -9 -13 -10 0 -10 13 0 13 -1 0 -10 -13 -9 -13 -10 0 -10
13 0 13 -1 0 -10 -13 -9 -13 -10 0 -10 13 0 13 -1 0 -10 -13 -9 -13 -10 0 -10
13 0 13 -1 0 -10 -13 -9 -13 -10 0 -10 13 0 13 -1 0 -10 -13 -9 -13 -10 0 -10
13 0 13 -1 0 -10 -13 -9 -13 -10 0 -10 13 0 13 -1 0 -10 -13 -9 -13 -10 0 -10
13 0 13 -1 0 -10 -13 -9 -13 -10 0 -10 13 0 13 -1 0 -10 -13 -9 -13 -10 0 -10
13 0 13 -1 0 -10 -13 -9 -13 -10 0 -10 13 0 13 -1 0 -10 -13 -9 -13 -10 0 -10
13 0 13 -1 0 -10 -13 -9 -13 -10 0 -10 13 0 13 -1 0 -10 -13 -9 -13 -10 0 -10
13 0 13 -1 0 -10 -13 -9 -13 -10 0 -10 13 0 13 -1 0 -10 -13 -9 -13 -10 0 -10
13 0 13 -1 0 -10 -13 -9 -13 -10 0 -10 13 0 13 -1 0 -10 -13 -9 -13 -10 0 -10
13 0 13 -1 0 -10 -13 -9 -13 -10 0 -10 13 0 13 -1 0 -10 -13 -9 -13 -10 0 -10
13 0 13 -1 0 -10 -13 -9 -13 -10 0 -10 13 0 13 -1 0 -10 -13 -9 -13 -10 0 -10
13 0 13 -1 0 -10 -13 -9 -13 -10 0 -10 13 0 13 -1 0 -10 -13 -9 -13 -10 0 -10
13 0 13 -1 0 -10 -13 -9 -13 -10 0 -10 13 0 13 -1 0 -10 -13 -9 -13 -10 0 -10
13 0 13 -1 0 -10 -13 -9 -13 -10 0 -10 13 0 13 -1 0 -10 -13 -9 -13 -10 0 -10
13 0 13 -1 0 -10 -13 -9 -13 -10 0 -10 13 0 13 -1 0 -10 -13 -9 -13 -10 0 -10
13 0 13 -1 0 -10 -13 -9 -13 -10 0 -10 9 0 11 -3 4 -8 -5 -4 -21 -25 -34 -47
-83 -136 -301 -370 -488 -523 -777 -634 -1749 -853 -2712 -612 -602 151 -1208
532 -1574 990 -51 63 -103 131 -117 151 l-24 36 0 1809 0 1809 24 35 c120 171
361 426 526 556 654 516 1448 747 2258 658z"/>
<path d="M4330 4661 c0 -505 3 -772 10 -769 5 1 359 336 785 743 731 698 773
740 747 747 -15 4 -299 14 -632 23 -333 8 -674 18 -757 22 l-153 6 0 -772z"/>
<path d="M3869 4967 c-452 -486 -680 -728 -913 -967 l-191 -195 724 -3 c398
-1 726 -1 728 1 2 2 2 349 1 771 l-3 767 -346 -374z"/>
<path d="M5551 4893 c-142 -136 -258 -249 -256 -251 3 -3 658 380 708 414 16
10 8 15 -65 42 -46 16 -93 33 -105 36 -19 6 -60 -29 -282 -241z"/>
<path d="M1890 4385 l0 -585 359 0 359 0 171 177 c94 98 170 180 169 184 -2 4
-167 188 -368 408 l-365 401 -162 0 -163 0 0 -585z"/>
<path d="M1598 4734 l-187 -169 186 -3 c102 -1 188 -1 190 1 2 2 2 80 1 172
l-3 169 -187 -170z"/>
<path d="M2031 3623 c36 -38 392 -412 791 -833 398 -421 731 -771 740 -778 13
-10 18 -6 31 30 102 271 597 1630 597 1638 0 7 -374 10 -1112 10 l-1112 0 65
-67z"/>
<path d="M4076 3035 c-76 -209 -237 -650 -358 -979 -175 -480 -216 -602 -206
-611 20 -18 699 -387 704 -382 2 2 3 532 2 1178 l-3 1174 -139 -380z"/>
</g>
</svg>
